<?xml version="1.0" encoding="UTF-8"?>
<svg xmlns="http://www.w3.org/2000/svg" xmlns:xlink="http://www.w3.org/1999/xlink" width="18px" height="18px" viewBox="0 0 18 18" version="1.1">
<g id="surface1">
<path style=" stroke:none;fill-rule:nonzero;fill:rgb(0%,0%,0%);fill-opacity:1;" d="M 4.71875 2.152344 C 4.671875 2.183594 4.621094 2.203125 4.5625 2.210938 L 2.074219 2.59375 C 1.882812 2.621094 1.730469 2.789062 1.730469 2.980469 L 1.730469 9.867188 C 1.730469 9.972656 4.609375 11.648438 5.457031 12.46875 C 6.527344 13.507812 7.292969 15.460938 8.386719 17.15625 C 8.769531 17.75 9.269531 18 9.730469 18 C 10.605469 18 11.355469 17.113281 10.980469 15.921875 C 10.636719 14.816406 10.273438 13.828125 9.78125 12.941406 C 9.378906 12.21875 9.902344 11.328125 10.726562 11.328125 L 14.953125 11.328125 C 16.582031 11.328125 16.535156 9.058594 15.691406 8.394531 C 15.546875 8.28125 15.503906 8.078125 15.589844 7.914062 C 15.894531 7.347656 15.835938 6.140625 15.070312 5.726562 C 14.882812 5.628906 14.796875 5.40625 14.886719 5.214844 C 15.214844 4.535156 15.164062 3.132812 14.136719 2.859375 C 13.941406 2.808594 13.816406 2.625 13.839844 2.425781 C 13.921875 1.8125 13.796875 0.628906 11.871094 0.144531 C 11.484375 0.0507812 11.066406 0 10.621094 0 C 8.976562 0 6.960938 0.683594 4.71875 2.152344 Z M 4.71875 2.152344 "/>
</g>
</svg>
