<?xml version="1.0" encoding="UTF-8"?>
<svg xmlns="http://www.w3.org/2000/svg" xmlns:xlink="http://www.w3.org/1999/xlink" width="18px" height="18px" viewBox="0 0 18 18" version="1.1">
<g id="surface1">
<path style=" stroke:none;fill-rule:nonzero;fill:rgb(0%,0%,0%);fill-opacity:1;" d="M 17.519531 10.441406 C 17.519531 10.160156 17.453125 9.890625 17.324219 9.648438 C 17.746094 9.324219 18 8.824219 18 8.277344 C 18 7.328125 17.226562 6.554688 16.277344 6.554688 L 11.609375 6.554688 C 12.011719 5.527344 12.230469 4.28125 12.230469 2.988281 C 12.230469 2.171875 11.5625 1.507812 10.746094 1.507812 C 9.929688 1.507812 9.261719 2.171875 9.261719 2.988281 C 9.261719 5.914062 7.222656 8.101562 4.1875 8.433594 C 4.167969 8.433594 4.148438 8.441406 4.128906 8.445312 C 3.929688 8.265625 3.664062 8.15625 3.375 8.15625 L 1.125 8.15625 C 0.503906 8.15625 0 8.660156 0 9.28125 L 0 14.625 C 0 15.246094 0.503906 15.75 1.125 15.75 L 3.375 15.75 C 3.71875 15.75 4.027344 15.59375 4.230469 15.351562 C 4.953125 15.457031 5.417969 15.6875 5.871094 15.910156 C 6.449219 16.199219 7.046875 16.492188 8.101562 16.492188 L 14.832031 16.492188 C 15.785156 16.492188 16.558594 15.71875 16.558594 14.769531 C 16.558594 14.488281 16.492188 14.21875 16.363281 13.972656 C 16.785156 13.652344 17.039062 13.152344 17.039062 12.605469 C 17.039062 12.324219 16.972656 12.054688 16.84375 11.8125 C 17.265625 11.488281 17.519531 10.988281 17.519531 10.441406 Z M 16.367188 11.453125 L 15.890625 11.453125 C 15.734375 11.453125 15.609375 11.578125 15.609375 11.734375 C 15.609375 11.886719 15.734375 12.015625 15.890625 12.015625 L 16.3125 12.015625 C 16.417969 12.191406 16.476562 12.394531 16.476562 12.605469 C 16.476562 13.03125 16.246094 13.417969 15.871094 13.621094 L 15.359375 13.621094 C 15.207031 13.621094 15.078125 13.75 15.078125 13.902344 C 15.078125 14.058594 15.207031 14.183594 15.359375 14.183594 L 15.835938 14.183594 C 15.9375 14.363281 15.996094 14.5625 15.996094 14.769531 C 15.996094 15.410156 15.472656 15.929688 14.832031 15.929688 L 8.101562 15.929688 C 7.179688 15.929688 6.6875 15.6875 6.117188 15.40625 C 5.683594 15.191406 5.195312 14.949219 4.480469 14.824219 C 4.492188 14.757812 4.5 14.691406 4.5 14.625 L 4.5 10.371094 C 4.5 10.214844 4.375 10.089844 4.21875 10.089844 C 4.0625 10.089844 3.9375 10.214844 3.9375 10.371094 L 3.9375 14.625 C 3.9375 14.933594 3.683594 15.1875 3.375 15.1875 L 1.125 15.1875 C 0.816406 15.1875 0.5625 14.933594 0.5625 14.625 L 0.5625 9.28125 C 0.5625 8.972656 0.816406 8.71875 1.125 8.71875 L 3.375 8.71875 C 3.683594 8.71875 3.9375 8.972656 3.9375 9.28125 C 3.9375 9.4375 4.0625 9.5625 4.21875 9.5625 C 4.375 9.5625 4.5 9.4375 4.5 9.28125 C 4.5 9.171875 4.484375 9.066406 4.453125 8.964844 C 6.027344 8.753906 7.367188 8.078125 8.332031 7.003906 C 9.296875 5.933594 9.824219 4.507812 9.824219 2.988281 C 9.824219 2.480469 10.238281 2.070312 10.746094 2.070312 C 11.253906 2.070312 11.667969 2.480469 11.667969 2.988281 C 11.667969 4.371094 11.40625 5.695312 10.929688 6.71875 C 10.863281 6.859375 10.921875 7.027344 11.066406 7.089844 C 11.109375 7.113281 11.160156 7.121094 11.207031 7.117188 C 11.214844 7.117188 11.21875 7.117188 11.226562 7.117188 L 16.277344 7.117188 C 16.917969 7.117188 17.4375 7.636719 17.4375 8.277344 C 17.4375 8.695312 17.21875 9.070312 16.863281 9.28125 L 16.335938 9.28125 C 16.179688 9.28125 16.054688 9.40625 16.054688 9.5625 C 16.054688 9.714844 16.179688 9.84375 16.335938 9.84375 L 16.785156 9.84375 C 16.898438 10.023438 16.957031 10.226562 16.957031 10.441406 C 16.957031 10.863281 16.730469 11.246094 16.367188 11.453125 Z M 16.367188 11.453125 "/>
<path style=" stroke:none;fill-rule:nonzero;fill:rgb(0%,0%,0%);fill-opacity:1;" d="M 14.847656 11.453125 L 14.550781 11.453125 C 14.394531 11.453125 14.269531 11.578125 14.269531 11.734375 C 14.269531 11.886719 14.394531 12.015625 14.550781 12.015625 L 14.847656 12.015625 C 15.003906 12.015625 15.128906 11.886719 15.128906 11.734375 C 15.128906 11.578125 15.003906 11.453125 14.847656 11.453125 Z M 14.847656 11.453125 "/>
<path style=" stroke:none;fill-rule:nonzero;fill:rgb(0%,0%,0%);fill-opacity:1;" d="M 15.359375 9.28125 L 15.0625 9.28125 C 14.90625 9.28125 14.78125 9.40625 14.78125 9.5625 C 14.78125 9.714844 14.90625 9.84375 15.0625 9.84375 L 15.359375 9.84375 C 15.515625 9.84375 15.640625 9.714844 15.640625 9.5625 C 15.640625 9.40625 15.515625 9.28125 15.359375 9.28125 Z M 15.359375 9.28125 "/>
<path style=" stroke:none;fill-rule:nonzero;fill:rgb(0%,0%,0%);fill-opacity:1;" d="M 14.335938 13.625 L 14.039062 13.625 C 13.882812 13.625 13.757812 13.75 13.757812 13.90625 C 13.757812 14.058594 13.882812 14.1875 14.039062 14.1875 L 14.335938 14.1875 C 14.492188 14.1875 14.617188 14.058594 14.617188 13.90625 C 14.617188 13.75 14.492188 13.625 14.335938 13.625 Z M 14.335938 13.625 "/>
<path style=" stroke:none;fill-rule:nonzero;fill:rgb(0%,0%,0%);fill-opacity:1;" d="M 2.8125 9.28125 C 2.503906 9.28125 2.25 9.535156 2.25 9.84375 C 2.25 10.152344 2.503906 10.40625 2.8125 10.40625 C 3.121094 10.40625 3.375 10.152344 3.375 9.84375 C 3.375 9.535156 3.121094 9.28125 2.8125 9.28125 Z M 2.8125 9.28125 "/>
</g>
</svg>
